<svg xmlns="http://www.w3.org/2000/svg" viewBox="0 0 833 1008" fill="none" style="color:#e63232">
  <path d="M596.8 165.203C639.333 112.137 704.933 41.0699 741.333 8.66986C746.8 3.86987 750.667 -0.130127 750 0.00323486C741.733 0.53656 597.2 45.6033 588.267 50.4033C586.533 51.3366 584.533 51.8699 583.867 51.6032C582 50.9365 615.6 31.8699 640.667 19.3366C651.733 13.7366 660.4 9.20319 660 9.20319C658.267 9.20319 629.2 16.1365 610 21.2032C590.267 26.4032 575.467 30.8033 534.667 43.3366C505.867 52.27 436 78.4032 422.667 85.2032C420.133 86.5365 413.2 91.3366 407.333 95.8699C392.4 107.47 392 107.603 392.933 101.87C393.333 99.2032 393.067 97.2032 392.4 97.2032C390.267 97.2032 337.733 124.003 322 133.07C197.867 204.937 100.133 316.937 36.9333 459.87C21.6 494.403 0 550.003 0 554.803C0 555.47 3.46667 551.337 7.86667 545.603C16.1333 534.537 32 516.803 32.8 517.603C33.2 517.87 32.5333 520.137 31.4667 522.67C30.4 525.203 29.2 530.003 28.6667 533.603C27.4667 541.07 29.2 543.87 34.8 543.87C38 543.87 40.2667 541.603 51.3333 527.203C58.4 518.003 64.4 510.537 64.6667 510.537C64.9334 510.537 63.6 514.003 61.7333 518.137C52.5333 539.203 39.2 585.737 35.2 611.87C32.1333 631.47 31.7333 688.537 34.5333 703.87C36.6667 715.737 42 733.203 45.4667 740.27C46.9333 742.937 47.6 745.203 47.2 745.203C44.9333 745.203 33.0667 736.537 29.3333 732.27C27.0667 729.737 24.9333 727.87 24.6667 728.137C24.4 728.403 25.0667 732.27 26.1333 736.537C33.8667 766.403 60.5333 787.737 99.3333 795.337C122.933 800.003 162.4 797.603 194 789.737C205.333 786.803 234.533 777.203 239.067 774.937C241.2 773.87 243.2 773.203 243.467 773.603C244.267 774.403 219.333 789.603 206.933 795.87C200.8 798.803 189.867 803.337 182.667 805.737C175.333 808.137 169.867 810.537 170.267 811.07C172.133 812.937 195.733 811.737 206.267 809.203C226.933 804.27 253.333 792.537 281.2 776.003C352.4 733.737 431.2 652.537 473.2 577.87C477.867 569.737 482.267 562.537 483.067 561.603C484.4 560.27 535.867 543.337 574.667 531.337L585.6 528.003L584.667 531.603C582.8 539.07 570 571.737 561.333 591.07C533.733 652.67 504 707.07 468.667 760.537C427.467 822.937 381.333 875.603 335.2 912.67C311.333 931.87 270.667 955.603 249.867 962.537C245.2 964.137 241.333 965.737 241.333 966.137C241.333 967.47 269.6 965.47 281.333 963.203C333.733 953.203 391.333 922.803 452.267 872.937C468.667 859.47 510 822.67 523.067 810.003C526.533 806.67 529.733 803.87 530 803.87C530.4 803.87 525.333 811.87 518.667 821.737C502.4 846.137 498.933 852.937 488.667 880.537C483.733 893.737 478.8 906.137 477.867 908.137C474.4 914.803 477.867 912.003 488.667 899.203C494.533 892.27 499.467 886.537 499.6 886.537C499.6 886.537 497.733 891.47 495.067 897.47C484.533 922.803 456.133 977.07 440 1003.2C438.4 1005.74 437.467 1007.87 437.867 1007.87C439.2 1007.87 467.6 973.07 484 951.203C547.6 866.003 593.467 774.937 639.467 642.537C648.533 616.403 650.667 611.337 650.667 617.07C650.667 618.803 651.333 619.87 652.267 619.603C655.2 618.537 665.733 603.603 682.133 577.203C701.067 546.937 704 541.337 702.8 538.137C702 536.003 701.2 536.27 694.133 540.537C689.867 543.07 686.267 545.203 686.133 545.203C685.867 545.203 696.667 528.803 710 508.67C730.667 477.47 738.8 463.87 736.667 463.87C736.533 463.87 730.533 466.67 723.467 470.003C713.2 474.937 710.133 475.737 708.667 474.537C707.067 473.203 707.6 471.203 712.667 461.337C721.867 442.803 738.133 423.47 779.333 381.47C792.533 368.003 810.133 350.937 818.4 343.47C826.667 336.137 833.2 329.87 832.933 329.737C831.2 327.87 727.467 359.47 651.6 385.07C638.667 389.47 628.267 392.536 628.533 392.003C628.933 391.47 634.667 387.203 641.2 382.537C647.867 377.87 653.067 373.87 652.933 373.603C651.867 372.67 600.8 388.403 537.333 409.47C445.6 439.737 389.2 461.337 347.333 482.137C330.533 490.537 301.2 506.803 301.867 507.47C302 507.737 304 507.337 306.133 506.67C308.267 506.003 320.8 502.003 334 497.87C347.2 493.737 359.733 489.737 362 489.07C367.467 487.337 365.467 488.803 350 498.537C313.6 521.603 306.533 526.137 297.067 533.47C291.467 537.87 286.533 542.137 286.267 543.07C285.467 544.937 272.267 553.87 234.4 577.87C220.667 586.537 209.6 594.003 209.867 594.27C210.267 594.537 229.333 589.07 252.267 582.137C295.467 568.937 337.467 556.937 338.133 557.603C338.4 557.737 333.6 561.203 327.6 565.203C321.733 569.203 316.533 573.203 316.4 574.003C316 575.07 319.467 574.937 327.6 573.737C342.4 571.47 344 571.47 344 573.603C344 574.537 338.8 580.937 332.4 587.737C324 596.803 321.733 599.87 324 599.203C333.467 596.27 368.8 586.937 369.2 587.337C369.467 587.603 367.467 590.003 364.8 592.803C359.333 598.537 358.933 599.87 362.667 599.87C364.8 599.87 400.533 588.137 451.333 570.803C455.733 569.337 459.467 568.27 459.733 568.537C461.333 570.003 457.467 578.403 450.133 589.737C443.867 599.47 439.467 604.67 432 610.67C391.467 643.737 319.067 682.27 266.933 698.537C241.067 706.537 226 709.337 204.667 710.137C186.933 710.803 183.467 710.537 174.267 708.003C159.467 704.003 151.2 699.337 142.133 690.137C133.467 681.203 126.8 668.537 123.333 654.27C120 640.803 119.333 613.87 121.867 594.937C138.667 468.27 251.733 332.67 412.667 246.137C441.333 230.803 474.533 217.203 483.333 217.203C490.8 217.203 494.667 222.67 494.667 233.337C494.667 239.603 488.667 271.07 486 278.403C484.933 281.47 484.533 283.87 485.067 283.737C485.6 283.737 490.533 278.403 496 271.87C501.467 265.337 506 260.137 506.267 260.403C507.467 261.603 484.533 310.003 476.8 322.403C475.2 325.07 472.133 330.137 470.133 333.87L466.4 340.536L471.6 335.203C476 330.536 504 297.737 554.533 238.003C581.333 206.27 588 197.07 588 191.47C588 187.47 586.8 187.203 579.067 190.137C576.267 191.203 578.4 188.003 596.8 165.203Z"/>
</svg>
